<?xml version="1.0" encoding="UTF-8" standalone="no"?>
<svg width="147px" height="47px" viewBox="0 0 147 47" version="1.1" xmlns="http://www.w3.org/2000/svg" xmlns:xlink="http://www.w3.org/1999/xlink">
    <!-- Generator: Sketch 3.8.3 (29802) - http://www.bohemiancoding.com/sketch -->
    <title>logo</title>
    <desc>Created with Sketch.</desc>
    <defs></defs>
    <g id="Page-1" stroke="none" stroke-width="1" fill="none" fill-rule="evenodd">
        <g id="phone-number" transform="translate(-291.000000, -82.000000)" fill="#FFFFFF">
            <g id="Group-5" transform="translate(291.000000, 82.000000)">
                <path d="M27.54,0.88 C18,0.88 8.88,1.72 4.08,7 C1.02,10.36 -0.18,16 1.14,23.8 L9.48,20.02 C7.5,17.32 5.52,13.66 7.08,9.94 C8.88,6.88 14.52,6.28 19.2,5.92 L19.2,46 L27.54,46 L45.24,0.88 L39.6,0.88 L27.48,31.66 L27.54,0.88 Z M62.16,35.68 C59.34,40.36 54.48,43.96 49.86,41.8 C47.28,40.54 46.2,37.18 46.14,34.3 C51.3,34.48 56.34,32.62 59.04,27.64 C60.84,24.1 60.78,19.54 57.72,17.08 C54.3,14.2 46.5,15.7 41.94,22.78 C36.36,31.66 36.54,46 47.88,46.36 C54.72,46.54 59.64,44.32 64.32,35.68 L62.16,35.68 Z M46.38,30.82 C47.04,27.46 48.12,24.76 49.38,22.84 C51.54,19.42 54.18,18.28 55.38,19.18 C56.88,20.38 55.8,31.78 46.32,31.48 C46.32,31.3 46.38,31.06 46.38,30.82 L46.38,30.82 Z M72.96,22.54 L74.22,16 L66,16 L59.94,46 L68.4,46 L71.76,28.66 C74.82,23.68 79.26,19.06 84.12,22.6 L89.7,17.98 C81.84,13.3 76.74,16.24 72.96,22.54 L72.96,22.54 Z M108.06,35.5 C106.02,41.38 97.5,46.6 98.88,39.58 L102.9,19.66 L106.68,19.66 L108.42,16 L103.56,16 L105.42,6.52 L96.9,8.2 L95.28,16 L92.4,16 L90.9,19.66 L94.5,19.66 L91.32,35.26 C87.96,51.76 105.66,48.34 110.46,35.5 L108.06,35.5 Z M143.88,35.74 C141.9,41.38 133.14,46.54 134.46,39.7 C135.84,32.8 137.1,27.46 138.96,18.28 L139.44,16 L124.26,16 C113.52,16.36 108.78,26.02 107.94,35.68 C106.86,48.1 120.54,49.84 126.9,40.36 C127.68,50.68 142.08,46.78 146.22,35.74 L143.88,35.74 Z M127.08,36.4 C118.8,47.56 114.84,41.92 117.12,31.06 C119.22,21.34 126.3,14.86 129.96,21.52 L127.08,36.4 Z" id="logo"></path>
            </g>
        </g>
    </g>
</svg>